# xmcd CD database file
#
# Track frame offsets:
#	150
#	8309
#	16849
#	26496
#	36609
#	46658
#	57752
#	69254
#	80534
#	92289
#	103861
#	115800
#	128274
#	140834
#	153265
#	166843
#	182831
#	199039
#	216236
#	238275
#
# Disc length: 3363 seconds
#
# Revision: 1
# Processed by: cddbd v1.5.2PL0 Copyright (c) Steve Scherf et al.
# Submitted via: CDex 1.70beta2
#
DISCID=fa0d2114
DTITLE=Kelly, Frank [CDN-crty-OVM-XX) - Killaloe, ON - Arround The Kitchen Table
DYEAR=1900
DGENRE=Country
TTITLE0=Running Kind
TTITLE1=The Brudenell Song
TTITLE2=Little Arrows
TTITLE3=Hula Love
TTITLE4=Tom Dooley (harmony by Laura Lee Kelly)
TTITLE5=Judy
TTITLE6=I Wouldn't Be In Love
TTITLE7=Don't Take Your Guns To Town
TTITLE8=I'll Break Out Again Tonight
TTITLE9=Okie From Muskogee
TTITLE10=Image Of Me
TTITLE11=Dublin In The Green
TTITLE12=Dark Side Of Fame
TTITLE13=If I Can Find A Clean Shirt
TTITLE14=High Enough For Heaven
TTITLE15=C'es La Vie
TTITLE16=I Go Out Of My Mind
TTITLE17=Devil Woman
TTITLE18=Watermelon Wine
TTITLE19=Carry Me From The Opeongo
EXTD=
EXTT0=
EXTT1=
EXTT2=
EXTT3=
EXTT4=
EXTT5=
EXTT6=
EXTT7=
EXTT8=
EXTT9=
EXTT10=
EXTT11=
EXTT12=
EXTT13=
EXTT14=
EXTT15=
EXTT16=
EXTT17=
EXTT18=
EXTT19=
PLAYORDER=
